<svg role="img" viewBox="0 0 24 24" xmlns="http://www.w3.org/2000/svg"><title>GrabCAD</title><path d="M15.92 10.272v3.417c0 1.784 1.383 2.502 3.28 2.502 1.444 0 2.733-.265 3.72-.854l.944 2.128c-1.36.85-2.634 1.171-4.838 1.171-3.45 0-6.01-1.61-6.01-4.777v-3.738c0-2.96 2.771-4.762 5.995-4.762 2.18 0 3.587.34 4.989 1.292L22.957 8.72c-1.024-.59-2.18-.911-3.776-.911-1.746 0-3.262.87-3.262 2.464M6.221 11.66H11.8v5.424a10.696 10.696 0 0 1-5.707 1.557C2.649 18.64 0 16.78 0 13.897V9.989c0-2.865 2.827-4.63 6.146-4.63 2.048 0 4.006.552 5.215 1.425l-.68 1.232c-1.062-.718-2.695-1.213-4.46-1.213-2.464 0-4.573 1.25-4.573 3.318v3.644c0 2.143 2.014 3.431 4.44 3.431 1.88 0 3.036-.472 4.06-1.005v-3.167H6.221Z"/></svg>